HIERARCHY
ROOT hip
{
  OFFSET 0 0 0
  CHANNELS 6 Xposition Yposition Zposition Zrotation Yrotation Xrotation
  JOINT abdomen
  {
    OFFSET 0 20.6881 -0.73152
    CHANNELS 3 Zrotation Xrotation Yrotation
    JOINT chest
    {
      OFFSET 0 11.7043 -0.48768
      CHANNELS 3 Zrotation Xrotation Yrotation
      JOINT neck
      {
        OFFSET 0 22.1894 -2.19456
        CHANNELS 3 Zrotation Xrotation Yrotation
        JOINT head
        {
          OFFSET -0.24384 7.07133 1.2192
          CHANNELS 3 Zrotation Xrotation Yrotation
          JOINT leftEye
          {
            OFFSET 4.14528 8.04674 8.04672
            CHANNELS 3 Zrotation Xrotation Yrotation
            End Site
            {
              OFFSET 1 0 0
            }
          }
          JOINT rightEye
          {
            OFFSET -3.6576 8.04674 8.04672
            CHANNELS 3 Zrotation Xrotation Yrotation
            End Site
            {
              OFFSET 1 0 0
            }
          }
        }
      }
      JOINT rCollar
      {
        OFFSET -2.68224 19.2634 -4.8768
        CHANNELS 3 Zrotation Xrotation Yrotation
        JOINT rShldr
        {
          OFFSET -8.77824 -1.95073 1.46304
          CHANNELS 3 Zrotation Xrotation Yrotation
          JOINT rForeArm
          {
            OFFSET -28.1742 -1.7115 0.48768
            CHANNELS 3 Zrotation Xrotation Yrotation
            JOINT rHand
            {
              OFFSET -22.5879 0.773209 7.07136
              CHANNELS 3 Zrotation Xrotation Yrotation
              JOINT rThumb1
              {
                OFFSET -1.2192 -0.487915 3.41376
                CHANNELS 3 Zrotation Xrotation Yrotation
                JOINT rThumb2
                {
                  OFFSET -3.37035 -0.52449 3.41376
                  CHANNELS 3 Zrotation Xrotation Yrotation
                  End Site
                  {
                    OFFSET -1.78271 -1.18214 1.43049
                  }
                }
              }
              JOINT rIndex1
              {
                OFFSET -7.75947 0.938293 5.60832
                CHANNELS 3 Zrotation Xrotation Yrotation
                JOINT rIndex2
                {
                  OFFSET -2.54057 -0.884171 1.56538
                  CHANNELS 3 Zrotation Xrotation Yrotation
                  End Site
                  {
                    OFFSET -1.62519 -0.234802 1.16502
                  }
                }
              }
              JOINT rMid1
              {
                OFFSET -8.24714 1.18213 3.41376
                CHANNELS 3 Zrotation Xrotation Yrotation
                JOINT rMid2
                {
                  OFFSET -3.10165 -0.590103 1.0647
                  CHANNELS 3 Zrotation Xrotation Yrotation
                  End Site
                  {
                    OFFSET -2.48547 -0.328903 0.83742
                  }
                }
              }
              JOINT rRing1
              {
                OFFSET -8.82822 0.546677 1.51678
                CHANNELS 3 Zrotation Xrotation Yrotation
                JOINT rRing2
                {
                  OFFSET -2.60934 -0.819778 -0.0198488
                  CHANNELS 3 Zrotation Xrotation Yrotation
                  End Site
                  {
                    OFFSET -2.33842 -0.294052 0.168128
                  }
                }
              }
              JOINT rPinky1
              {
                OFFSET -8.27202 -0.0477905 -0.4584
                CHANNELS 3 Zrotation Xrotation Yrotation
                JOINT rPinky2
                {
                  OFFSET -1.82734 -0.647385 -0.700984
                  CHANNELS 3 Zrotation Xrotation Yrotation
                  End Site
                  {
                    OFFSET -1.69225 -0.51767 -0.607171
                  }
                }
              }
            }
          }
        }
      }
      JOINT lCollar
      {
        OFFSET 2.68224 19.2634 -4.8768
        CHANNELS 3 Zrotation Xrotation Yrotation
        JOINT lShldr
        {
          OFFSET 8.77824 -1.95073 1.46304
          CHANNELS 3 Zrotation Xrotation Yrotation
          JOINT lForeArm
          {
            OFFSET 28.1742 -1.7115 0.48768
            CHANNELS 3 Zrotation Xrotation Yrotation
            JOINT lHand
            {
              OFFSET 22.5879 0.773209 7.07136
              CHANNELS 3 Zrotation Xrotation Yrotation
              JOINT lThumb1
              {
                OFFSET 1.2192 -0.487915 3.41376
                CHANNELS 3 Zrotation Xrotation Yrotation
                JOINT lThumb2
                {
                  OFFSET 3.37035 -0.52449 3.41376
                  CHANNELS 3 Zrotation Xrotation Yrotation
                  End Site
                  {
                    OFFSET 1.78271 -1.18214 1.43049
                  }
                }
              }
              JOINT lIndex1
              {
                OFFSET 7.75947 0.938293 5.60832
                CHANNELS 3 Zrotation Xrotation Yrotation
                JOINT lIndex2
                {
                  OFFSET 2.54057 -0.884171 1.56538
                  CHANNELS 3 Zrotation Xrotation Yrotation
                  End Site
                  {
                    OFFSET 1.62519 -0.234802 1.16502
                  }
                }
              }
              JOINT lMid1
              {
                OFFSET 8.24714 1.18213 3.41376
                CHANNELS 3 Zrotation Xrotation Yrotation
                JOINT lMid2
                {
                  OFFSET 3.10165 -0.590103 1.0647
                  CHANNELS 3 Zrotation Xrotation Yrotation
                  End Site
                  {
                    OFFSET 2.48547 -0.328903 0.83742
                  }
                }
              }
              JOINT lRing1
              {
                OFFSET 8.82822 0.546677 1.51678
                CHANNELS 3 Zrotation Xrotation Yrotation
                JOINT lRing2
                {
                  OFFSET 2.60934 -0.819778 -0.0198488
                  CHANNELS 3 Zrotation Xrotation Yrotation
                  End Site
                  {
                    OFFSET 2.33842 -0.294052 0.168128
                  }
                }
              }
              JOINT lPinky1
              {
                OFFSET 8.27202 -0.0477905 -0.4584
                CHANNELS 3 Zrotation Xrotation Yrotation
                JOINT lPinky2
                {
                  OFFSET 1.82734 -0.647385 -0.700984
                  CHANNELS 3 Zrotation Xrotation Yrotation
                  End Site
                  {
                    OFFSET 1.69225 -0.51767 -0.607171
                  }
                }
              }
            }
          }
        }
      }
    }
  }
  JOINT rButtock
  {
    OFFSET -8.77824 4.35084 1.2192
    CHANNELS 3 Zrotation Xrotation Yrotation
    JOINT rThigh
    {
      OFFSET 0 -1.70687 -2.19456
      CHANNELS 3 Zrotation Xrotation Yrotation
      JOINT rShin
      {
        OFFSET 0 -36.8199 0.73152
        CHANNELS 3 Zrotation Xrotation Yrotation
        JOINT rFoot
        {
          OFFSET 0.73152 -45.1104 -5.12064
          CHANNELS 3 Zrotation Xrotation Yrotation
          End Site
          {
            OFFSET -1.1221 -3.69964 12.103
          }
        }
      }
    }
  }
  JOINT lButtock
  {
    OFFSET 8.77824 4.35084 1.2192
    CHANNELS 3 Zrotation Xrotation Yrotation
    JOINT lThigh
    {
      OFFSET 0 -1.70687 -2.19456
      CHANNELS 3 Zrotation Xrotation Yrotation
      JOINT lShin
      {
        OFFSET 0 -36.8199 0.73152
        CHANNELS 3 Zrotation Xrotation Yrotation
        JOINT lFoot
        {
          OFFSET -0.73152 -45.1104 -5.12064
          CHANNELS 3 Zrotation Xrotation Yrotation
          End Site
          {
            OFFSET 1.1221 -3.69964 12.103
          }
        }
      }
    }
  }
}
MOTION
Frames:	4
Frame Time:	0.00833333
66.6251 84.7382 -214.236 0.0 0.0 0.0 -0.427942 -0.00226452 -0.0122347 -0.118112 -0.00351153 -0.0204637 9.06805e-15 -3.18055e-15 -3.10601e-17 2.71357e-14 -1.27222e-14 -9.16273e-17 -0.0 0.0 0.0 -0.0 0.0 0.0 4.47149e-15 2.71776e-18 1.98785e-16 9.85997e-14 -1.2424e-16 9.93923e-16 1.63222e-12 -4.87818e-13 -1.90833e-14 1.86795e-11 4.91942e-13 -1.59028e-14 4.4061e-11 1.1591e-14 -7.31528e-14 7.61043e-11 1.59028e-14 -1.43125e-13 4.40698e-11 1.70955e-14 -8.90555e-14 7.73091 5.47488 0.417314 4.40622e-11 1.21259e-14 -7.31528e-14 2.90554 0.965183 0.102902 4.40704e-11 1.23246e-14 -7.63333e-14 10.2786 0.731801 0.0259123 4.40622e-11 7.95139e-15 -6.99722e-14 2.22167 -0.733487 -0.20892 4.57351e-15 2.52363e-18 -1.98785e-16 9.18943e-14 -2.48481e-17 -7.95139e-16 1.63436e-12 4.89805e-13 -2.54444e-14 1.86829e-11 -4.82227e-13 3.18055e-15 4.40717e-11 1.74747e-14 -7.31528e-14 7.60991e-11 2.54444e-14 -1.15295e-13 4.40646e-11 2.10712e-14 -7.63333e-14 -7.73091 5.47488 -0.417314 4.40696e-11 1.83876e-14 -7.31528e-14 -2.90554 0.965183 -0.102902 4.40578e-11 1.81888e-14 -7.55382e-14 -10.2786 0.731801 -0.0259123 4.4069e-11 1.59028e-14 -7.63333e-14 -2.22167 -0.733487 0.20892 -2.03217e-16 0.0 -3.88251e-19 0.165876 -2.52982 -0.026259 -0.0074964 -0.969606 -0.0649881 -0.489659 3.49932 0.126873 2.03217e-16 0.0 3.88251e-19 -0.81755 -4.18585 0.0676242 0.00282217 2.03005 0.0196128 0.495528 2.15577 -0.100328
62.9526 83.6551 -213.457 3.9236 -39.9965 -9.7995 -3.41958 3.96189 0.532516 0.860618 -1.35041 0.0511067 -4.07726 1.50079 -2.12453 8.04519 1.48169 -4.10932 -0.0 0.0 0.0 -0.0 0.0 0.0 -6.45865e-14 -1.70629e-13 5.89023e-13 23.133 1.09427 1.01056 -2.61237 -0.982899 4.2751 0.12209 7.76417 1.05535 -3.27754e-09 2.15969e-09 -1.14132e-10 -5.6505e-09 3.72393e-09 -1.23143e-10 -3.27754e-09 2.15969e-09 -1.14143e-10 7.73091 5.47488 0.417314 -3.27754e-09 2.15969e-09 -1.1413e-10 2.90554 0.965183 0.102902 -3.27754e-09 2.15969e-09 -1.14134e-10 10.2786 0.731801 0.0259123 -3.27755e-09 2.15968e-09 -1.14127e-10 2.22167 -0.733487 -0.20892 -6.45835e-14 -1.70631e-13 5.88662e-13 -21.3804 4.95698 -0.451569 2.33822 -0.847597 -3.85214 -0.017282 2.91832 -0.408226 -1.73506e-09 2.96547e-09 7.91616e-11 -2.99568e-09 5.14775e-09 1.55969e-10 -1.73507e-09 2.96547e-09 7.9161e-11 -7.73091 5.47488 -0.417314 -1.73506e-09 2.96547e-09 7.91618e-11 -2.90554 0.965183 -0.102902 -1.73508e-09 2.96547e-09 7.91611e-11 -10.2786 0.731801 -0.0259123 -1.73506e-09 2.96547e-09 7.91585e-11 -2.22167 -0.733487 0.20892 -2.03217e-16 0.0 -3.88251e-19 -1.80975 -9.02438 3.47818 0.0181499 11.8744 0.127788 -0.61544 -1.8799 -1.00494 2.03217e-16 0.0 3.88251e-19 -3.03419 -6.02653 0.0995887 -0.0562514 11.9547 -0.196978 1.17571 -5.2661 3.84668
62.8508 83.9514 -213.281 4.0909 -40.3363 -9.7497 -6.66212 8.1554 1.12375 1.89774 -2.77883 0.128813 -8.27647 3.10211 -4.38431 16.8205 3.02217 -8.48807 -0.0 0.0 0.0 -0.0 0.0 0.0 -1.41179e-13 -3.58804e-13 1.24494e-12 47.5456 2.24906 2.08704 -5.2131 -2.00271 8.79538 -0.0711744 15.9671 2.23797 -6.96348e-09 4.55998e-09 -2.58984e-10 -1.20056e-08 7.86277e-09 -2.91182e-10 -6.96348e-09 4.55998e-09 -2.5899e-10 7.73091 5.47488 0.417314 -6.96348e-09 4.55997e-09 -2.5898e-10 2.90554 0.965183 0.102902 -6.96348e-09 4.55998e-09 -2.58984e-10 10.2786 0.731801 0.0259123 -6.96349e-09 4.55997e-09 -2.58978e-10 2.22167 -0.733487 -0.20892 -1.41285e-13 -3.58807e-13 1.24461e-12 -43.9005 10.2258 -0.935615 4.68711 -1.7312 -7.92823 0.00986798 5.99183 -0.841763 -3.72073e-09 6.26332e-09 1.80146e-10 -6.4239e-09 1.08726e-08 3.51856e-10 -3.72074e-09 6.26332e-09 1.80148e-10 -7.73091 5.47488 -0.417314 -3.72073e-09 6.26332e-09 1.80146e-10 -2.90554 0.965183 -0.102902 -3.72074e-09 6.26332e-09 1.80147e-10 -10.2786 0.731801 -0.0259123 -3.72073e-09 6.26332e-09 1.80142e-10 -2.22167 -0.733487 0.20892 -2.03217e-16 0.0 -3.88251e-19 -3.01765 -15.8071 7.39509 -0.0569041 25.46 0.361225 -0.987323 -7.5593 -2.24694 2.03217e-16 0.0 3.88251e-19 -5.37703 -7.96825 0.127104 -0.0311384 22.4353 -0.451291 3.0309 -13.0007 8.20871
62.7546 84.0195 -213.315 4.0346 -40.2106 -9.6753 -9.63315 11.8859 1.65366 2.82819 -4.04419 0.19469 -11.8978 4.47759 -6.39099 24.7693 4.35362 -12.36 -0.0 0.0 0.0 -0.0 0.0 0.0 -2.02703e-13 -5.11894e-13 1.76667e-12 69.283 3.27873 3.03609 -7.40069 -2.88311 12.8399 -0.555815 23.2595 3.41483 -9.92076e-09 6.47903e-09 -3.4225e-10 -1.71037e-08 1.11718e-08 -3.69142e-10 -9.92075e-09 6.47903e-09 -3.42252e-10 7.73091 5.47488 0.417314 -9.92076e-09 6.47903e-09 -3.42244e-10 2.90554 0.965183 0.102902 -9.92075e-09 6.47903e-09 -3.42248e-10 10.2786 0.731801 0.0259123 -9.92076e-09 6.47903e-09 -3.42242e-10 2.22167 -0.733487 -0.20892 -2.02898e-13 -5.11897e-13 1.76638e-12 -63.8998 14.8672 -1.39639 6.67504 -2.49686 -11.5663 0.0741513 8.75316 -1.23751 -5.29333e-09 8.89637e-09 2.37631e-10 -9.13924e-09 1.54432e-08 4.68137e-10 -5.29335e-09 8.89637e-09 2.37636e-10 -7.73091 5.47488 -0.417314 -5.29333e-09 8.89637e-09 2.37632e-10 -2.90554 0.965183 -0.102902 -5.29334e-09 8.89637e-09 2.37634e-10 -10.2786 0.731801 -0.0259123 -5.29333e-09 8.89637e-09 2.37628e-10 -2.22167 -0.733487 0.20892 -2.03217e-16 0.0 -3.88251e-19 -3.23422 -21.6847 11.1563 -0.24233 37.5609 0.637213 -1.51563 -12.6184 -3.3474 2.03217e-16 0.0 3.88251e-19 -7.4612 -9.70786 0.164584 0.0846086 31.8021 -0.726369 5.73441 -19.7098 12.4307
